<?xml version="1.0" encoding="UTF-8" standalone="no"?>
<svg width="282px" height="258px" viewBox="0 0 282 258" version="1.1" xmlns="http://www.w3.org/2000/svg" xmlns:xlink="http://www.w3.org/1999/xlink">
    <!-- Generator: Sketch 3.6.1 (26313) - http://www.bohemiancoding.com/sketch -->
    <title>Calendar</title>
    <desc>Created with Sketch.</desc>
    <defs></defs>
    <g id="Page-1" stroke="none" stroke-width="1" fill="none" fill-rule="evenodd">
        <g id="Desktop" transform="translate(-678.000000, -1308.000000)" fill="#2F83B6">
            <g id="Content-2" transform="translate(64.000000, 1307.000000)">
                <g id="Booking-Info">
                    <g id="Calendar" transform="translate(614.000000, 0.000000)">
                        <g id="Group">
                            <path d="M281.85336,22.9223913 C281.84772,22.913913 281.84772,22.9082609 281.84772,22.8997826 C281.83362,22.8432609 281.79696,22.8065217 281.78286,22.7528261 C281.68134,22.4447826 281.54316,22.1480435 281.36832,21.873913 C281.295,21.7552174 281.20194,21.6534783 281.1117,21.546087 C280.95942,21.3567391 280.79868,21.1815217 280.61256,21.0204348 C280.49412,20.9215217 280.3785,20.833913 280.24878,20.7491304 C280.16418,20.6897826 280.09368,20.6163043 280.00344,20.5682609 C279.87936,20.4947826 279.744,20.4693478 279.61428,20.41 C279.48738,20.3563043 279.36612,20.2997826 279.23076,20.2573913 C278.9262,20.1669565 278.61882,20.1217391 278.3058,20.1047826 C278.24658,20.1019565 278.193,20.0765217 278.13378,20.0765217 L278.0379,20.0765217 L278.01252,20.0765217 L233.11812,20.0765217 C232.88406,12.836087 230.15148,8.4273913 227.7855,5.99130435 C224.91192,3.04086957 221.14158,1.41304348 217.17102,1.41304348 C209.58804,1.41304348 201.81612,7.70391304 201.6582,19.4067391 C201.65538,19.4378261 201.63282,19.6723913 201.59898,20.0821739 L177.93072,20.0821739 C177.69948,12.8417391 174.9669,8.43304348 172.5981,5.99695652 C169.72734,3.04086957 165.95982,1.41304348 161.98644,1.41304348 C154.40346,1.41304348 146.63154,7.70391304 146.4708,19.4067391 C146.4708,19.4378261 146.44824,19.6723913 146.4144,20.0821739 L122.74614,20.0821739 C122.5149,12.8417391 119.78232,8.43304348 117.41352,5.99695652 C114.54276,3.04086957 110.77524,1.41304348 106.80186,1.41304348 C99.2217,1.41304348 91.44978,7.70391304 91.28904,19.4067391 C91.28622,19.4378261 91.26648,19.6723913 91.23264,20.0821739 L67.55592,20.0821739 C67.32186,12.8417391 64.58928,8.43304348 62.2233,5.99695652 C59.35254,3.04086957 55.5822,1.41304348 51.61728,1.41304348 C44.02866,1.41304348 36.26238,7.70673913 36.10728,19.4067391 C36.10164,19.4378261 36.0819,19.6723913 36.05088,20.0821739 L21.90294,20.0821739 C21.17538,20.0821739 20.46192,20.2913043 19.84716,20.6813043 L1.80762,32.1269565 C1.65534,32.2202174 1.551,32.3643478 1.41846,32.4773913 C1.28028,32.5876087 1.14774,32.6893478 1.0293,32.8193478 C0.8037,33.0708696 0.62886,33.3506522 0.47658,33.6502174 C0.41736,33.7632609 0.3384,33.8536957 0.29046,33.9723913 C0.11844,34.4076087 0.02538,34.8682609 0.0141,35.3458696 C0.0141,35.3741304 0,35.393913 0,35.425 L0,90.2426087 L0,254.686957 C0,256.843261 1.72584,258.586957 3.8634,258.586957 L224.00106,258.586957 C224.50584,258.586957 225.00498,258.482391 225.4731,258.290217 C225.94122,258.098043 226.36986,257.809783 226.73646,257.442391 L230.89878,253.228696 L268.99698,253.228696 C270.59592,253.228696 271.89594,251.920217 271.89594,250.309348 L271.89594,247.621739 L278.13378,247.621739 C280.27134,247.621739 281.99718,245.878043 281.99718,243.724565 L281.99718,79.2802174 L281.99718,23.9793478 C282,23.6147826 281.94642,23.2586957 281.85336,22.9223913 L281.85336,22.9223913 Z M263.95482,84.695 L263.95482,37.5813043 L266.5464,35.9336957 L274.27602,31.0332609 L274.27602,77.2708696 L263.95482,84.695 L263.95482,84.695 Z M7.72398,39.3221739 L35.70966,39.3221739 L35.70966,39.5284783 C35.70966,39.7913043 35.76888,40.04 35.78016,40.3 C34.05432,42.8434783 32.99964,45.8871739 32.99964,49.1908696 C32.99964,57.9828261 40.14552,65.1413043 48.927,65.1413043 C57.70848,65.1413043 64.85436,57.9856522 64.85436,49.1908696 C64.85436,45.6554348 63.66996,42.4082609 61.7157,39.7602174 C61.7157,39.681087 61.73826,39.6047826 61.73826,39.5256522 L61.73826,39.3193478 L90.89142,39.3193478 L90.89142,39.5256522 C90.89142,39.7913043 90.95064,40.0428261 90.96474,40.3028261 C89.2389,42.8491304 88.19268,45.8871739 88.19268,49.1908696 C88.19268,57.9828261 95.33574,65.1413043 104.11722,65.1413043 C112.8987,65.1413043 120.04458,57.9856522 120.04458,49.1908696 C120.04458,45.6554348 118.863,42.4082609 116.90592,39.7602174 C116.90874,39.681087 116.9313,39.6047826 116.9313,39.5256522 L116.9313,39.3193478 L146.076,39.3193478 L146.076,39.5256522 C146.076,39.7913043 146.13522,40.0428261 146.14932,40.3028261 C144.42348,42.8491304 143.37444,45.8871739 143.37444,49.1908696 C143.37444,57.9828261 150.5175,65.1413043 159.3018,65.1413043 C168.07764,65.1413043 175.2207,57.9856522 175.2207,49.1908696 C175.2207,45.6554348 174.04194,42.413913 172.09332,39.7658696 C172.09332,39.6867391 172.11588,39.6076087 172.11588,39.5256522 L172.11588,39.3193478 L201.26904,39.3193478 L201.26904,39.5256522 C201.26904,39.7884783 201.32826,40.0371739 201.33954,40.2971739 C199.61088,42.8406522 198.55902,45.8843478 198.55902,49.1880435 C198.55902,57.98 205.7049,65.1384783 214.48638,65.1384783 C223.26786,65.1384783 230.41374,57.9828261 230.41374,49.1880435 C230.41374,45.6526087 229.22934,42.4054348 227.27508,39.7573913 C227.27508,39.6782609 227.29764,39.6019565 227.29764,39.5228261 L227.29764,39.3165217 L256.22238,39.3165217 L256.1829,86.3426087 L7.72398,86.3426087 L7.72398,39.3221739 L7.72398,39.3221739 Z M57.0204,50.2619565 C56.49024,54.2495652 53.08368,57.3526087 48.92982,57.3526087 C44.9085,57.3526087 41.57526,54.4586957 40.87872,50.6576087 C43.06986,52.4634783 45.77142,53.5769565 48.73524,53.5769565 C51.89646,53.5769565 54.76158,52.2995652 57.0204,50.2619565 L57.0204,50.2619565 Z M112.21344,50.2591304 C111.68046,54.2495652 108.27672,57.3526087 104.12004,57.3526087 C100.10436,57.3526087 96.77112,54.4615217 96.06894,50.6632609 C98.25726,52.4691304 100.956,53.5769565 103.917,53.5769565 C107.08668,53.5769565 109.95462,52.2995652 112.21344,50.2591304 L112.21344,50.2591304 Z M167.38674,50.2676087 C166.85094,54.2523913 163.45002,57.3526087 159.30462,57.3526087 C155.28894,57.3526087 151.95288,54.4615217 151.25352,50.6632609 C153.44184,52.4691304 156.14058,53.5769565 159.10158,53.5769565 C162.26562,53.5769565 165.13356,52.3023913 167.38674,50.2676087 L167.38674,50.2676087 Z M264.73314,27.8765217 L258.9747,31.5306522 L227.28918,31.5306522 L227.28354,27.8765217 L264.73314,27.8765217 L264.73314,27.8765217 Z M222.57978,50.2591304 C222.04962,54.2495652 218.64306,57.3526087 214.4892,57.3526087 C210.4707,57.3526087 207.13746,54.4586957 206.4381,50.6604348 C208.62642,52.4634783 211.32798,53.5769565 214.28616,53.5769565 C217.4502,53.5769565 220.32096,52.2995652 222.57978,50.2591304 L222.57978,50.2591304 Z M209.00712,28.6226087 C209.02968,28.47 209.04096,28.3173913 209.04096,28.1591304 C209.09172,22.913913 209.34552,20.1923913 209.36526,19.8447826 C209.47524,12.4969565 213.36402,9.20456522 217.17102,9.20456522 C219.04914,9.20456522 220.8624,10.0043478 222.2724,11.4597826 C223.2312,12.446087 224.29998,14.0202174 224.91756,16.4619565 C223.68804,16.7163043 222.5685,17.3323913 221.68584,18.265 C220.1151,19.921087 219.396,22.3741304 219.5511,25.771087 L219.57648,39.5313043 C219.57648,42.9197826 217.15692,45.7882609 214.28898,45.7882609 C211.42104,45.7882609 209.00148,42.9197826 209.00148,39.5313043 L209.00712,28.6226087 L209.00712,28.6226087 Z M201.30288,27.9669565 C201.28032,28.1365217 201.26904,28.3004348 201.26904,28.47 L201.26904,31.5306522 L172.11588,31.5306522 L172.11588,27.8765217 L201.3057,27.8765217 C201.3057,27.9076087 201.30288,27.9358696 201.30288,27.9669565 L201.30288,27.9669565 Z M153.81408,28.6226087 C153.83664,28.47 153.84792,28.3202174 153.85074,28.1619565 C153.90996,22.913913 154.16094,20.1923913 154.1835,19.8447826 C154.29066,12.4969565 158.18226,9.20456522 161.98926,9.20456522 C163.86738,9.20456522 165.68064,10.0043478 167.09064,11.4597826 C168.04944,12.446087 169.1154,14.0202174 169.7358,16.4619565 C168.50628,16.7163043 167.38392,17.3267391 166.50408,18.2621739 C164.93334,19.9154348 164.21142,22.3656522 164.36652,25.836087 L164.39472,39.5341304 C164.39472,42.9226087 161.97516,45.791087 159.10722,45.791087 C156.23364,45.791087 153.80844,42.9226087 153.80844,39.5341304 L153.81408,28.6226087 L153.81408,28.6226087 Z M146.10984,27.9669565 C146.08728,28.1308696 146.076,28.3004348 146.076,28.47 L146.076,31.5306522 L116.9172,31.5306522 L116.91438,27.8765217 L146.11266,27.8765217 C146.11266,27.9076087 146.10984,27.9358696 146.10984,27.9669565 L146.10984,27.9669565 Z M98.6295,28.7073913 C98.66052,28.5236957 98.6718,28.34 98.67462,28.1591304 C98.72538,22.913913 98.97918,20.1923913 98.99892,19.8447826 C99.10608,12.4969565 102.99768,9.20456522 106.80468,9.20456522 C108.68562,9.20456522 110.49606,10.0043478 111.90606,11.4597826 C112.86486,12.446087 113.93364,14.0202174 114.55122,16.4619565 C113.31888,16.7163043 112.19934,17.3323913 111.3195,18.265 C109.74876,19.921087 109.02402,22.3741304 109.18194,25.771087 L109.21014,39.5313043 C109.21014,42.9197826 106.78776,45.7882609 103.91982,45.7882609 C101.04906,45.7882609 98.62386,42.9197826 98.62386,39.5313043 L98.6295,28.7073913 L98.6295,28.7073913 Z M90.93936,27.885 C90.90834,28.0771739 90.89142,28.275 90.89142,28.47 L90.89142,31.5306522 L61.7298,31.5306522 L61.72416,27.8765217 L90.93936,27.8765217 C90.93936,27.8765217 90.93936,27.8793478 90.93936,27.885 L90.93936,27.885 Z M43.44774,28.6226087 C43.4703,28.47 43.47594,28.3202174 43.48158,28.1619565 C43.53798,22.913913 43.7946,20.1923913 43.81152,19.8447826 C43.91868,12.4969565 47.81028,9.20456522 51.61728,9.20456522 C53.48976,9.20456522 55.30302,10.0043478 56.71302,11.4541304 C57.67182,12.446087 58.7406,14.0202174 59.35818,16.4591304 C58.12866,16.7134783 57.00912,17.3295652 56.12646,18.2621739 C54.55572,19.9182609 53.83662,22.3713043 53.99172,25.7682609 L54.0171,39.5284783 C54.0171,42.9169565 51.60036,45.7854348 48.73806,45.7854348 C45.86448,45.7854348 43.4421,42.9169565 43.4421,39.5284783 L43.44774,28.6226087 L43.44774,28.6226087 Z M23.01402,27.8765217 L35.74632,27.8765217 C35.74632,27.9076087 35.7435,27.9358696 35.7435,27.9669565 C35.72094,28.1365217 35.70966,28.3004348 35.70966,28.47 L35.70966,31.5306522 L17.2584,31.5306522 L23.01402,27.8765217 L23.01402,27.8765217 Z M7.72398,94.1397826 L256.2252,94.1397826 L256.2252,214.248478 L224.00388,214.248478 C221.86914,214.248478 220.14048,215.992174 220.14048,218.145652 L220.14048,250.795435 L7.72398,250.795435 L7.72398,94.1397826 L7.72398,94.1397826 Z M238.4028,234.587826 L227.86728,245.256304 L227.86728,222.04 L250.79106,222.04 L238.4028,234.587826 L238.4028,234.587826 Z M236.67132,247.381522 L262.82682,220.895435 C263.15676,220.561957 263.39364,220.16913 263.57976,219.753696 C263.63898,219.635 263.66718,219.510652 263.70948,219.386304 C263.81664,219.061304 263.88432,218.730652 263.90406,218.38587 C263.91252,218.303913 263.95482,218.224783 263.95482,218.142826 L263.95482,94.2641304 L266.10366,92.7182609 L266.10366,247.381522 L236.67132,247.381522 L236.67132,247.381522 Z M271.89876,239.824565 L271.89876,88.5526087 L274.27602,86.8428261 L274.27602,239.827391 L271.89876,239.827391 L271.89876,239.824565 Z" id="Shape"></path>
                            <path d="M107.49276,125.362391 L93.89754,125.362391 L73.38486,145.320217 L82.14096,154.657609 L88.70592,148.358261 C91.3539,145.670652 92.28168,143.692391 92.28168,143.692391 L92.5101,143.692391 C92.5101,143.692391 92.3973,146.493043 92.3973,149.29087 L92.3973,195.27413 L74.76384,195.27413 L74.76384,208.226087 L125.1234,208.226087 L125.1234,195.27413 L107.49276,195.27413 L107.49276,125.362391 L107.49276,125.362391 Z" id="Shape"></path>
                            <path d="M160.39032,154.657609 C155.54556,154.657609 151.7442,156.18087 151.7442,156.18087 L151.51296,156.18087 C151.51296,156.18087 151.85982,154.547391 152.09106,152.331739 L153.126,140.891739 C153.2388,139.255435 154.04532,138.32 155.65836,138.32 L169.14078,138.32 C170.75382,138.32 171.67596,139.255435 171.67596,140.891739 L171.67596,145.905217 L185.39244,145.905217 L185.39244,133.303696 C185.39244,127.818261 182.97006,125.362391 177.55284,125.362391 L147.3591,125.362391 C141.9447,125.362391 140.10324,127.815435 139.64358,133.303696 L136.64592,168.547826 L141.9447,171.232609 C141.9447,171.232609 148.39968,167.499348 157.38984,167.499348 C166.72404,167.499348 175.02894,172.396957 175.02894,181.615652 C175.02894,189.203696 169.1436,195.398478 160.04064,195.398478 C148.05564,195.398478 141.02538,186.637609 141.02538,186.637609 L133.42266,198.190652 C133.42266,198.190652 142.75404,209.749348 160.04064,209.749348 C179.17434,209.749348 190.35564,196.325435 190.35564,181.853043 C190.35282,166.682609 179.17152,154.657609 160.39032,154.657609 L160.39032,154.657609 Z" id="Shape"></path>
                        </g>
                    </g>
                </g>
            </g>
        </g>
    </g>
</svg>