<?xml version="1.0" encoding="UTF-8" standalone="no"?>
<svg width="216px" height="210px" viewBox="0 0 216 210" version="1.1" xmlns="http://www.w3.org/2000/svg" xmlns:xlink="http://www.w3.org/1999/xlink">
    <!-- Generator: Sketch 3.6.1 (26313) - http://www.bohemiancoding.com/sketch -->
    <title>Group 13</title>
    <desc>Created with Sketch.</desc>
    <defs></defs>
    <g id="Page-1" stroke="none" stroke-width="1" fill="none" fill-rule="evenodd">
        <g id="Desktop" transform="translate(-776.000000, -753.000000)">
            <g id="Content-1" transform="translate(-16.000000, 592.000000)">
                <rect id="Background" stroke="#979797" fill="#2F83B6" x="0" y="0" width="1058" height="661"></rect>
                <g id="4C's" transform="translate(48.000000, 161.000000)">
                    <g id="Group-13" transform="translate(746.000000, 2.000000)">
                        <ellipse id="Oval-3-Copy-3" stroke="#FFFFFF" stroke-width="4" fill-opacity="0" fill="#D8D8D8" cx="106" cy="103" rx="106" ry="103"></ellipse>
                        <path d="M96.6197183,80.2517606 L100.140845,60.2517606 L89.5774648,60.2517606 L93.0985915,80.2517606 L96.6197183,80.2517606 L96.6197183,80.2517606 Z M86.056338,77.4517606 L76.5492958,60.2517606 L68.4507042,69.4517606 L83.5915493,80.6517606 L86.056338,77.4517606 L86.056338,77.4517606 Z M86.056338,88.2517606 L68.4507042,84.2517606 L68.4507042,96.2517606 L86.056338,92.2517606 L86.056338,88.2517606 L86.056338,88.2517606 Z M160,80.2517606 C160,73.4517606 155.422535,68.2517606 149.43662,68.2517606 C144.859155,68.2517606 140.985915,71.8517606 139.577465,76.2517606 C137.464789,75.0517606 135.352113,73.8517606 132.887324,73.0517606 C113.521127,67.0517606 101.901408,85.0517606 101.549296,86.2517606 L101.549296,86.2517606 L101.549296,86.2517606 L60,133.051761 L80.4225352,156.251761 L107.183099,133.451761 C110.352113,136.251761 113.873239,138.251761 117.746479,139.451761 C133.239437,144.251761 149.43662,133.451761 154.014085,115.051761 C155.774648,107.051761 155.070423,99.0517606 152.605634,91.8517606 C156.478873,90.6517606 160,85.8517606 160,80.2517606 L160,80.2517606 Z M112.112676,111.451761 L100.84507,98.6517606 L105.774648,93.0517606 L117.042254,105.851761 L112.112676,111.451761 L112.112676,111.451761 Z M149.43662,84.2517606 C147.323944,84.2517606 145.915493,82.6517606 145.915493,80.2517606 C145.915493,77.8517606 147.323944,76.2517606 149.43662,76.2517606 C151.549296,76.2517606 152.957746,77.8517606 152.957746,80.2517606 C152.957746,82.6517606 151.549296,84.2517606 149.43662,84.2517606 L149.43662,84.2517606 Z" id="coach" fill="#FFFFFF"></path>
                    </g>
                </g>
            </g>
        </g>
    </g>
</svg>