<?xml version="1.0" encoding="UTF-8" standalone="no"?>
<svg width="216px" height="210px" viewBox="0 0 216 210" version="1.1" xmlns="http://www.w3.org/2000/svg" xmlns:xlink="http://www.w3.org/1999/xlink">
    <!-- Generator: Sketch 3.6.1 (26313) - http://www.bohemiancoding.com/sketch -->
    <title>Group 12</title>
    <desc>Created with Sketch.</desc>
    <defs></defs>
    <g id="Page-1" stroke="none" stroke-width="1" fill="none" fill-rule="evenodd">
        <g id="Desktop" transform="translate(-528.000000, -753.000000)">
            <g id="Content-1" transform="translate(-16.000000, 592.000000)">
                <rect id="Background" stroke="#979797" fill="#2F83B6" x="0" y="0" width="1058" height="661"></rect>
                <g id="4C's" transform="translate(48.000000, 161.000000)">
                    <g id="Group-12" transform="translate(498.000000, 2.000000)">
                        <ellipse id="Oval-3-Copy-2" stroke="#FFFFFF" stroke-width="4" fill-opacity="0" fill="#D8D8D8" cx="106" cy="103" rx="106" ry="103"></ellipse>
                        <g id="communication" transform="translate(53.000000, 60.251761)" fill="#FFFFFF">
                            <path d="M55.6944444,2.36521739 C52.7777778,1.39130435 49.7222222,0.973913043 46.5277778,0.973913043 C35.1388889,1.11304348 24.7222222,7.93043478 19.8611111,18.3652174 C17.5,23.5130435 16.8055556,28.6608696 17.3611111,33.8086957 C17.3611111,34.226087 16.9444444,34.3652174 16.6666667,34.0869565 L13.6111111,31.026087 C12.6388889,30.0521739 10.9722222,29.9130435 9.86111111,30.7478261 C8.47222222,31.8608696 8.33333333,33.8086957 9.58333333,35.0608696 L18.3333333,43.5478261 C18.6111111,43.826087 19.0277778,44.1043478 19.4444444,44.2434783 C19.7222222,44.3826087 20,44.3826087 20.2777778,44.3826087 C20.9722222,44.3826087 21.6666667,44.1043478 22.2222222,43.5478261 L30.5555556,34.9217391 C31.5277778,33.9478261 31.6666667,32.2782609 30.8333333,31.1652174 C29.7222222,29.773913 27.7777778,29.6347826 26.5277778,30.8869565 L23.4722222,34.0869565 C23.1944444,34.3652174 22.7777778,34.226087 22.7777778,33.8086957 C22.5,31.1652174 22.5,28.6608696 23.0555556,26.0173913 C25,15.7217391 33.75,7.79130435 44.0277778,6.8173913 C47.5,6.4 50.8333333,6.8173913 53.8888889,7.79130435 C55.4166667,8.20869565 56.9444444,7.37391304 57.3611111,5.84347826 L57.3611111,5.84347826 C57.9166667,4.45217391 57.0833333,2.92173913 55.6944444,2.36521739 L55.6944444,2.36521739 Z" id="Shape"></path>
                            <path d="M51.5277778,94.4695652 C54.4444444,95.1652174 57.6388889,95.4434783 60.8333333,95.1652174 C72.2222222,94.1913043 82.0833333,86.5391304 86.1111111,75.826087 C88.0555556,70.5391304 88.3333333,65.2521739 87.5,60.2434783 C87.5,59.826087 87.9166667,59.6869565 88.1944444,59.826087 L91.5277778,62.6086957 C92.6388889,63.4434783 94.1666667,63.5826087 95.2777778,62.6086957 C96.6666667,61.4956522 96.5277778,59.4086957 95.2777778,58.2956522 L85.9722222,50.5043478 C85.5555556,50.226087 85.2777778,49.9478261 84.7222222,49.9478261 C84.4444444,49.9478261 84.1666667,49.8086957 83.8888889,49.9478261 C83.1944444,49.9478261 82.5,50.3652174 81.9444444,50.9217391 L74.3055556,60.2434783 C73.4722222,61.3565217 73.3333333,62.8869565 74.3055556,64 C75.4166667,65.3913043 77.5,65.2521739 78.6111111,64 L81.5277778,60.5217391 C81.8055556,60.2434783 82.2222222,60.3826087 82.2222222,60.6608696 C82.7777778,63.1652174 82.9166667,65.8086957 82.5,68.4521739 C81.25,78.8869565 73.1944444,87.373913 62.9166667,89.1826087 C59.4444444,89.7391304 56.25,89.6 53.0555556,88.9043478 C51.5277778,88.4869565 50.1388889,89.6 49.7222222,90.9913043 L49.7222222,90.9913043 C49.1666667,92.6608696 50,94.1913043 51.5277778,94.4695652 L51.5277778,94.4695652 Z" id="Shape"></path>
                            <g id="Group" transform="translate(0.000000, 51.478261)">
                                <ellipse id="Oval" cx="22.2222222" cy="11.2695652" rx="10.6944444" ry="10.573913"></ellipse>
                                <path d="M22.2222222,22.4 C11.3888889,22.4 2.5,30.0521739 0.694444444,40.2086957 C0.416666667,42.1565217 1.80555556,43.826087 3.75,43.826087 L40.5555556,43.826087 C42.5,43.826087 44.0277778,42.1565217 43.6111111,40.2086957 C41.9444444,30.0521739 33.0555556,22.4 22.2222222,22.4 L22.2222222,22.4 Z" id="Shape"></path>
                            </g>
                            <g id="Group" transform="translate(55.555556, 1.391304)">
                                <ellipse id="Oval" cx="22.2222222" cy="11.2695652" rx="10.6944444" ry="10.573913"></ellipse>
                                <path d="M22.2222222,22.4 C11.3888889,22.4 2.5,30.0521739 0.694444444,40.2086957 C0.416666667,42.1565217 1.80555556,43.826087 3.75,43.826087 L40.5555556,43.826087 C42.5,43.826087 44.0277778,42.1565217 43.6111111,40.2086957 C41.9444444,30.0521739 33.0555556,22.4 22.2222222,22.4 L22.2222222,22.4 Z" id="Shape"></path>
                            </g>
                        </g>
                    </g>
                </g>
            </g>
        </g>
    </g>
</svg>