<?xml version="1.0" encoding="UTF-8" standalone="no"?>
<svg width="216px" height="210px" viewBox="0 0 216 210" version="1.1" xmlns="http://www.w3.org/2000/svg" xmlns:xlink="http://www.w3.org/1999/xlink">
    <!-- Generator: Sketch 3.6.1 (26313) - http://www.bohemiancoding.com/sketch -->
    <title>Group 5</title>
    <desc>Created with Sketch.</desc>
    <defs></defs>
    <g id="Page-1" stroke="none" stroke-width="1" fill="none" fill-rule="evenodd">
        <g id="Desktop" transform="translate(-32.000000, -763.000000)">
            <g id="Content-1" transform="translate(-16.000000, 592.000000)">
                <rect id="Background" stroke="#979797" fill="#2F83B6" x="0" y="0" width="1058" height="661"></rect>
                <g id="4C's" transform="translate(48.000000, 163.000000)">
                    <g id="Group-5" transform="translate(2.000000, 10.000000)">
                        <ellipse id="Oval-3" stroke="#FFFFFF" stroke-width="4" fill-opacity="0" fill="#D8D8D8" cx="106" cy="103" rx="106" ry="103"></ellipse>
                        <g id="commpetency" transform="translate(56.000000, 50.251761)" fill="#FFFFFF">
                            <path d="M97.8823529,44.1818182 C100.352941,43.9636364 100.352941,47.4545455 97.8823529,47.6727273 C93.0588235,48.1090909 88.1176471,48.7636364 83.5294118,49.0909091 C81.0588235,49.3090909 81.0588235,45.8181818 83.5294118,45.6 C88.1176471,45.0545455 93.0588235,44.6181818 97.8823529,44.1818182 L97.8823529,44.1818182 Z" id="Shape"></path>
                            <path d="M82.1176471,14.8363636 C83.6470588,12.9818182 86.9411765,14.8363636 85.4117647,16.6909091 C82.5882353,20.4 79.6470588,23.8909091 76.5882353,27.6 C75.0588235,29.4545455 71.7647059,27.6 73.2941176,25.7454545 C76.3529412,22.0363636 79.2941176,18.3272727 82.1176471,14.8363636 L82.1176471,14.8363636 Z" id="Shape"></path>
                            <path d="M74,50.4 C74,57.1636364 71.4117647,62.8363636 66.1176471,66.9818182 C65.8823529,66.9818182 64.4705882,68.4 64.4705882,68.4 L64.2352941,68.6181818 C62.1176471,71.3454545 60.5882353,79.0909091 60.2352941,85.2 C60,84.9818182 59.7647059,84.9818182 59.4117647,84.9818182 L45.5294118,84.9818182 C42.5882353,84.9818182 42.5882353,89.1272727 45.5294118,89.1272727 L59.4117647,89.1272727 L60,89.1272727 C59.1764706,92.7272727 55.7647059,95.4545455 51.8823529,95.4545455 L47.1764706,95.4545455 C42.7058824,95.4545455 39.0588235,92.0727273 39.0588235,87.9272727 L39.0588235,87.4909091 C39.0588235,84.7636364 38.8235294,81.9272727 38.2352941,78.9818182 L52.9411765,78.9818182 C55.8823529,78.9818182 55.8823529,74.8363636 52.9411765,74.8363636 L38.9411765,74.8363636 C38.7058824,74.8363636 38.3529412,75.0545455 38.1176471,75.0545455 C37.6470588,72.3272727 36.4705882,69.9272727 35.7647059,68.7272727 L34.4705882,67.3090909 L34.2352941,67.0909091 C28.9411765,62.9454545 26.1176471,57.2727273 26.1176471,50.5090909 C26.1176471,38.2909091 36.9411765,28.2545455 50.1176471,28.2545455 C63.1764706,28.2545455 74,38.1818182 74,50.4 L74,50.4 Z" id="Shape"></path>
                            <path d="M51.4117647,2.29090909 L51.4117647,15.8181818 C51.4117647,18.1090909 47.6470588,18.1090909 47.6470588,15.8181818 L47.6470588,2.29090909 C47.6470588,-0.109090909 51.4117647,-0.109090909 51.4117647,2.29090909 L51.4117647,2.29090909 Z" id="Shape"></path>
                            <path d="M26.9411765,25.7454545 C28.4705882,27.6 25.1764706,29.2363636 23.6470588,27.6 C20.8235294,24.1090909 17.8823529,20.4 14.8235294,16.6909091 C13.5294118,14.8363636 16.8235294,12.9818182 18.1176471,14.8363636 C21.1764706,18.3272727 24.1176471,22.0363636 26.9411765,25.7454545 L26.9411765,25.7454545 Z" id="Shape"></path>
                            <path d="M17.0588235,45.7090909 C19.5294118,45.9272727 19.5294118,49.6363636 17.0588235,49.2 C12.2352941,48.7636364 7.29411765,48.2181818 2.70588235,47.7818182 C0.235294118,47.5636364 0.235294118,44.0727273 2.70588235,44.2909091 C7.52941176,44.6181818 12.1176471,45.0545455 17.0588235,45.7090909 L17.0588235,45.7090909 Z" id="Shape"></path>
                        </g>
                    </g>
                </g>
            </g>
        </g>
    </g>
</svg>