<?xml version="1.0" encoding="UTF-8" standalone="no"?>
<svg width="216px" height="210px" viewBox="0 0 216 210" version="1.1" xmlns="http://www.w3.org/2000/svg" xmlns:xlink="http://www.w3.org/1999/xlink">
    <!-- Generator: Sketch 3.6.1 (26313) - http://www.bohemiancoding.com/sketch -->
    <title>Group 11</title>
    <desc>Created with Sketch.</desc>
    <defs></defs>
    <g id="Page-1" stroke="none" stroke-width="1" fill="none" fill-rule="evenodd">
        <g id="Desktop" transform="translate(-280.000000, -753.000000)">
            <g id="Content-1" transform="translate(-16.000000, 592.000000)">
                <rect id="Background" stroke="#979797" fill="#2F83B6" x="0" y="0" width="1058" height="661"></rect>
                <g id="4C's" transform="translate(48.000000, 161.000000)">
                    <g id="Group-11" transform="translate(250.000000, 2.000000)">
                        <ellipse id="Oval-3-Copy" stroke="#FFFFFF" stroke-width="4" fill-opacity="0" fill="#D8D8D8" cx="106" cy="103" rx="106" ry="103"></ellipse>
                        <g id="compassion" transform="translate(56.000000, 60.000000)" fill="#FFFFFF">
                            <path d="M83.152,19.957 C83.152,8.803 76.502,0.295 65.349,0.295 C58.736,0.295 51.367,5.887 49.997,12.566 C48.628,5.886 41.259,0.295 34.647,0.295 C23.495,0.295 16.842,8.803 16.842,19.957 C16.842,26.91 21.322,33.172 26.797,37.125 C38.176,45.348 40.852,46.803 49.996,55.945 C59.142,46.802 61.816,45.347 73.197,37.125 C78.672,33.172 83.152,26.91 83.152,19.957 L83.152,19.957 Z" id="Shape"></path>
                            <path d="M20.588,51.648 L20.588,51.652 L16.746,48.16 C15.742,47.158 14.394,46.734 13.086,46.851 C12.047,46.941 11.033,47.363 10.24,48.16 C8.441,49.957 8.441,52.871 10.24,54.666 L14.59,58.615 L21.445,64.834 L25.84,68.82 C26.438,69.361 26.483,70.285 25.944,70.881 C25.399,71.479 24.479,71.52 23.882,70.981 L8.785,57.287 C6.976,55.937 5.801,53.781 5.801,51.351 C5.801,47.419 8.873,44.205 12.744,43.968 L9.936,20.662 C9.936,18.121 7.877,16.06 5.334,16.06 C2.791,16.06 0.734,18.121 0.734,20.662 L0.734,62.713 C0.734,64.236 1.474,65.586 2.611,66.424 L19.392,81.486 C20.931,82.941 21.89,85.002 21.89,87.285 L21.89,92.5 L21.896,92.5 L21.896,92.516 C21.896,94.346 23.375,95.827 25.203,95.827 L37.914,95.827 C39.746,95.827 41.225,94.347 41.225,92.516 L41.225,92.5 L41.225,90.041 L41.225,75.424 C41.202,72.08 39.75,69.074 37.454,66.985 L20.588,51.648 L20.588,51.648 Z" id="Shape"></path>
                            <path d="M94.668,16.061 C92.125,16.061 90.061,18.122 90.061,20.663 L87.254,43.97 C91.129,44.206 94.197,47.421 94.197,51.353 C94.197,53.783 93.025,55.939 91.218,57.289 L76.117,70.98 C75.523,71.519 74.597,71.478 74.058,70.88 C73.519,70.284 73.558,69.36 74.156,68.819 L78.556,64.833 L85.406,58.614 L89.761,54.665 C91.56,52.87 91.56,49.956 89.761,48.159 C88.968,47.362 87.954,46.94 86.915,46.85 C85.606,46.733 84.259,47.157 83.255,48.159 L79.413,51.651 L79.413,51.647 L62.549,66.984 C60.252,69.074 58.801,72.08 58.778,75.423 L58.778,90.04 L58.778,92.5 L58.778,92.516 C58.778,94.346 60.257,95.827 62.085,95.827 L74.794,95.827 C76.628,95.827 78.106,94.347 78.106,92.516 L78.106,92.5 L78.106,87.285 C78.106,85.002 79.073,82.941 80.61,81.486 L97.387,66.424 C98.528,65.586 99.268,64.236 99.268,62.713 L99.268,20.662 C99.268,18.121 97.205,16.061 94.668,16.061 L94.668,16.061 Z" id="Shape"></path>
                        </g>
                    </g>
                </g>
            </g>
        </g>
    </g>
</svg>