<?xml version="1.0" encoding="UTF-8" standalone="no"?>
<svg width="280px" height="322px" viewBox="0 0 280 322" version="1.1" xmlns="http://www.w3.org/2000/svg" xmlns:xlink="http://www.w3.org/1999/xlink">
    <!-- Generator: Sketch 3.6.1 (26313) - http://www.bohemiancoding.com/sketch -->
    <title>Contract</title>
    <desc>Created with Sketch.</desc>
    <defs></defs>
    <g id="Page-1" stroke="none" stroke-width="1" fill="none" fill-rule="evenodd">
        <g id="Desktop" transform="translate(-66.000000, -1701.000000)" fill="#2F83B6">
            <g id="Content-2" transform="translate(64.000000, 1307.000000)">
                <g id="Warranty-Info" transform="translate(0.000000, 391.000000)">
                    <g id="Contract" transform="translate(0.000000, 0.646341)">
                        <g id="Group">
                            <g>
                                <rect id="Rectangle-path" x="38.9675854" y="76.8828293" width="164.526366" height="17.9826585"></rect>
                                <rect id="Rectangle-path" x="38.9675854" y="39.4696829" width="164.526366" height="17.9792195"></rect>
                                <rect id="Rectangle-path" x="38.9675854" y="114.309732" width="164.526366" height="17.9792195"></rect>
                                <rect id="Rectangle-path" x="38.9675854" y="151.726317" width="78.2893902" height="17.9826585"></rect>
                                <path d="M121.229049,266.311171 L33.6852439,266.311171 C25.6998293,266.311171 19.2241463,259.835488 19.2241463,251.850073 L19.2241463,32.3543415 C19.2241463,24.3654878 25.6998293,17.8863659 33.6852439,17.8863659 L208.459902,17.8863659 C216.435,17.8863659 222.910683,24.3654878 222.910683,32.3543415 L222.910683,165.045659 L239.307951,155.636488 L239.307951,24.5924634 C239.307951,12.6074634 229.596146,2.90597561 217.618024,2.90597561 L24.534,2.90597561 C12.552439,2.90597561 2.83719512,12.6074634 2.83719512,24.5924634 L2.83719512,259.608512 C2.83719512,271.576317 12.549,281.295 24.534,281.295 L113.646,281.295 L121.229049,266.311171 L121.229049,266.311171 Z" id="Shape"></path>
                            </g>
                            <path d="M251.492415,254.71822 L281.766146,240.308707 L251.702195,225.479634 L270.716561,197.874585 L237.254854,200.065244 L239.933854,166.641366 L212.046805,185.253366 L197.644171,154.979634 L182.815098,185.036707 L155.203171,166.039537 L157.386951,199.487488 L123.976829,196.829122 L142.599146,224.702415 L112.318537,239.105049 L142.385927,253.934122 L123.371561,281.54261 L156.822951,279.362268 L154.157707,312.77239 L182.044756,294.150073 L196.44739,324.434122 L211.276463,294.370171 L238.881512,313.377659 L236.70461,279.933146 L270.114732,282.605268 L251.492415,254.71822 L251.492415,254.71822 Z M244.390829,225.562171 L196.770659,281.910585 C194.373659,284.778732 190.814268,286.43978 187.07261,286.463854 L186.986634,286.463854 C183.272488,286.463854 179.747488,284.847512 177.30922,282.065341 L156.035415,257.648268 C151.378976,252.297146 151.932659,244.198244 157.270024,239.541805 C162.617707,234.885366 170.723488,235.439049 175.386805,240.786732 L186.825,253.920366 L224.795268,209.003268 C229.355415,203.590244 237.464634,202.899 242.87078,207.486659 C248.273488,212.064 248.961293,220.156024 244.390829,225.562171 L244.390829,225.562171 Z" id="Shape"></path>
                        </g>
                    </g>
                </g>
            </g>
        </g>
    </g>
</svg>