<?xml version="1.0" encoding="UTF-8" standalone="no"?>
<svg width="30px" height="30px" viewBox="0 0 30 30" version="1.1" xmlns="http://www.w3.org/2000/svg" xmlns:xlink="http://www.w3.org/1999/xlink">
    <!-- Generator: Sketch 3.6.1 (26313) - http://www.bohemiancoding.com/sketch -->
    <title>facebook</title>
    <desc>Created with Sketch.</desc>
    <defs></defs>
    <g id="Page-1" stroke="none" stroke-width="1" fill="none" fill-rule="evenodd">
        <g id="Desktop" transform="translate(-810.000000, -3645.000000)">
            <g id="Footer" transform="translate(0.000000, 3508.000000)">
                <rect id="Rectangle-17" stroke="#2F83B6" fill="#2F83B6" x="0" y="0" width="1024" height="289"></rect>
                <g id="Social" transform="translate(769.000000, 69.000000)">
                    <g id="social-icons" transform="translate(0.000000, 68.000000)">
                        <g id="facebook" transform="translate(41.000000, 0.000000)">
                            <path d="M28.3442578,30.0001172 C29.2585547,30.0001172 30,29.2587891 30,28.344375 L30,1.65574219 C30,0.741210938 29.2585547,0 28.3442578,0 L1.65574219,0 C0.74109375,0 0,0.741210938 0,1.65574219 L0,28.344375 C0,29.2587891 0.74109375,30.0001172 1.65574219,30.0001172 L28.3442578,30.0001172" id="Shape" fill="#FFFFFF"></path>
                            <path d="M20.6994141,30.0001172 L20.6994141,18.3825 L24.5990625,18.3825 L25.1828906,13.8549609 L20.6994141,13.8549609 L20.6994141,10.9641797 C20.6994141,9.65332031 21.0635156,8.76 22.9433203,8.76 L25.3408594,8.75894531 L25.3408594,4.70953125 C24.9260156,4.65433594 23.5028906,4.53105469 21.8472656,4.53105469 C18.3904687,4.53105469 16.0239844,6.64101562 16.0239844,10.5159375 L16.0239844,13.8549609 L12.114375,13.8549609 L12.114375,18.3825 L16.0239844,18.3825 L16.0239844,30.0001172 L20.6994141,30.0001172" id="Shape" fill="#2F83B6"></path>
                        </g>
                    </g>
                </g>
            </g>
        </g>
    </g>
</svg>