<?xml version="1.0" encoding="UTF-8" standalone="no"?>
<svg width="30px" height="30px" viewBox="0 0 30 30" version="1.1" xmlns="http://www.w3.org/2000/svg" xmlns:xlink="http://www.w3.org/1999/xlink">
    <!-- Generator: Sketch 3.6.1 (26313) - http://www.bohemiancoding.com/sketch -->
    <title>linkedin</title>
    <desc>Created with Sketch.</desc>
    <defs></defs>
    <g id="Page-1" stroke="none" stroke-width="1" fill="none" fill-rule="evenodd">
        <g id="Desktop" transform="translate(-892.000000, -3646.000000)">
            <g id="Footer" transform="translate(0.000000, 3508.000000)">
                <rect id="Rectangle-17" stroke="#2F83B6" fill="#2F83B6" x="0" y="0" width="1024" height="289"></rect>
                <g id="Social" transform="translate(769.000000, 69.000000)">
                    <g id="social-icons" transform="translate(0.000000, 68.000000)">
                        <g id="linkedin" transform="translate(123.000000, 1.000000)">
                            <path d="M27.655786,0 L2.36852656,0 C1.16015176,0 0.178450534,0.957797663 0.178450534,2.13876548 L0.178450534,27.5323555 C0.178450534,28.7143537 1.16015176,29.6735936 2.36852656,29.6735936 L27.655786,29.6735936 C28.8662215,29.6735936 29.8524563,28.7143537 29.8524563,27.5323555 L29.8524563,2.13876548 C29.8524563,0.957797663 28.8662215,0 27.655786,0" id="Shape" fill="#FFFFFF"></path>
                            <path d="M6.7793826,4.08527079 C8.18681771,4.08527079 9.33007534,5.22873449 9.33007534,6.6363756 C9.33007534,8.04504703 8.18681771,9.18892285 6.7793826,9.18892285 C5.36906267,9.18892285 4.22724756,8.04504703 4.22724756,6.6363756 C4.22724756,5.22873449 5.36906267,4.08527079 6.7793826,4.08527079 L6.7793826,4.08527079 L6.7793826,4.08527079 Z M4.57797298,11.1247127 L8.97914382,11.1247127 L8.97914382,25.2858172 L4.57797298,25.2858172 L4.57797298,11.1247127 L4.57797298,11.1247127 Z" id="Shape" fill="#2F83B6"></path>
                            <path d="M11.7396124,11.1247127 L15.9617114,11.1247127 L15.9617114,13.0594722 L16.0202343,13.0594722 C16.6075241,11.9463003 18.0433963,10.7723388 20.1844285,10.7723388 C24.6412374,10.7723388 25.4640616,13.705285 25.4640616,17.5181357 L25.4640616,25.2858172 L21.0659817,25.2858172 L21.0659817,18.3992766 C21.0659817,16.7563074 21.0356897,14.6441245 18.7788481,14.6441245 C16.4884177,14.6441245 16.1376923,16.433195 16.1376923,18.2803762 L16.1376923,25.2858172 L11.7396124,25.2858172 L11.7396124,11.1247127" id="Shape" fill="#2F83B6"></path>
                        </g>
                    </g>
                </g>
            </g>
        </g>
    </g>
</svg>