<?xml version="1.0" encoding="UTF-8" standalone="no"?>
<svg width="30px" height="25px" viewBox="0 0 30 25" version="1.1" xmlns="http://www.w3.org/2000/svg" xmlns:xlink="http://www.w3.org/1999/xlink">
    <!-- Generator: Sketch 3.6.1 (26313) - http://www.bohemiancoding.com/sketch -->
    <title>twitter</title>
    <desc>Created with Sketch.</desc>
    <defs></defs>
    <g id="Page-1" stroke="none" stroke-width="1" fill="none" fill-rule="evenodd">
        <g id="Desktop" transform="translate(-769.000000, -3651.000000)">
            <g id="Footer" transform="translate(0.000000, 3508.000000)">
                <rect id="Rectangle-17" stroke="#2F83B6" fill="#2F83B6" x="0" y="0" width="1024" height="289"></rect>
                <g id="Social" transform="translate(769.000000, 69.000000)" fill="#FFFFFF">
                    <g id="social-icons" transform="translate(0.000000, 68.000000)">
                        <path d="M30,8.88609679 C28.8961923,9.37561725 27.7099747,9.7064633 26.4649402,9.85526171 C27.7357621,9.09349281 28.7116207,7.88730386 29.171184,6.45012619 C27.9820037,7.15538242 26.6647646,7.66761769 25.2628113,7.9437068 C24.1400197,6.74750357 22.5404367,6 20.7702184,6 C17.3710084,6 14.6151652,8.75573357 14.6151652,12.154724 C14.6151652,12.6371118 14.6697026,13.1068803 14.7746077,13.5573357 C9.65927795,13.3006694 5.12410842,10.8503237 2.08844508,7.12663228 C1.55865247,8.03566334 1.25513004,9.09294415 1.25513004,10.2208932 C1.25513004,12.3561945 2.34181938,14.2400966 3.99330627,15.3437946 C2.98430814,15.3118622 2.03533413,15.0350049 1.20542082,14.5740151 C1.2049819,14.5996928 1.2049819,14.6254801 1.2049819,14.6513771 C1.2049819,17.6334906 3.32656644,20.1211457 6.14221441,20.6864918 C5.62569955,20.82717 5.08197081,20.9023373 4.52057501,20.9023373 C4.12399868,20.9023373 3.7383957,20.8638209 3.36266871,20.7919455 C4.14583562,23.2372436 6.41885218,25.0166795 9.11214748,25.0663887 C7.00570614,26.7171074 4.35180511,27.7010864 1.46823219,27.7010864 C0.971469329,27.7010864 0.48150993,27.672007 0,27.6151651 C2.72380117,29.3614616 5.95906946,30.3803358 9.43487326,30.3803358 C20.7558432,30.3803358 26.9465598,21.0017557 26.9465598,12.8684297 C26.9465598,12.6015582 26.9406342,12.3361133 26.928783,12.0722045 C28.1312411,11.2044332 29.1748052,10.1203775 30,8.88609679" id="twitter"></path>
                    </g>
                </g>
            </g>
        </g>
    </g>
</svg>