<?xml version="1.0" encoding="UTF-8" standalone="no"?>
<svg width="30px" height="22px" viewBox="0 0 30 22" version="1.1" xmlns="http://www.w3.org/2000/svg" xmlns:xlink="http://www.w3.org/1999/xlink">
    <!-- Generator: Sketch 3.6.1 (26313) - http://www.bohemiancoding.com/sketch -->
    <title>youtube</title>
    <desc>Created with Sketch.</desc>
    <defs></defs>
    <g id="Page-1" stroke="none" stroke-width="1" fill="none" fill-rule="evenodd">
        <g id="Desktop" transform="translate(-851.000000, -3651.000000)">
            <g id="Footer" transform="translate(0.000000, 3508.000000)">
                <rect id="Rectangle-17" stroke="#2F83B6" fill="#2F83B6" x="0" y="0" width="1024" height="289"></rect>
                <g id="Social" transform="translate(769.000000, 69.000000)">
                    <g id="social-icons" transform="translate(0.000000, 68.000000)">
                        <g id="youtube" transform="translate(82.000000, 6.000000)">
                            <path d="M11.90625,14.4375 L20.015625,10.2421875 L11.90625,6.01171875 L11.90625,14.4375 L11.90625,14.4375 L11.90625,14.4375 Z" id="Shape" fill="#2F83B6"></path>
                            <path d="M11.90625,6.01171875 L19.0195312,10.7578125 L20.015625,10.2421875 L11.90625,6.01171875 L11.90625,6.01171875 L11.90625,6.01171875 Z" id="Shape" fill="#420000" opacity="0.12"></path>
                            <path d="M29.6837173,4.546875 C29.6837173,4.546875 29.3908629,2.484375 28.4888715,1.5703125 C27.3525967,0.375 26.0757517,0.375 25.4783288,0.3046875 C21.2963686,0 15.005857,0 15.005857,0 L14.994143,0 C14.994143,0 8.70363139,0 4.49824288,0.3046875 C3.91253416,0.375 2.63568919,0.375 1.48770012,1.5703125 C0.597422882,2.484375 0.304568528,4.546875 0.304568528,4.546875 C0.304568528,4.546875 0,6.984375 0,9.41015625 L0,11.6835938 C0,14.109375 0.304568528,16.5351562 0.304568528,16.5351562 C0.304568528,16.5351562 0.597422882,18.5976562 1.4994143,19.5117188 C2.63568919,20.7070312 4.13510347,20.671875 4.8028114,20.7890625 C7.2042171,21.0234375 14.994143,21.09375 14.994143,21.09375 C14.994143,21.09375 21.2963686,21.0820312 25.4900429,20.7773438 C26.0757517,20.7070312 27.3525967,20.7070312 28.5005857,19.5117188 C29.4025771,18.5976562 29.6954314,16.5351562 29.6954314,16.5351562 C29.6954314,16.5351562 30,14.109375 30,11.6835938 L30,9.41015625 C29.9882858,6.984375 29.6837173,4.546875 29.6837173,4.546875 L29.6837173,4.546875 L29.6837173,4.546875 Z M11.9016009,14.4375 L11.9016009,6.01171875 L20.0078094,10.2421875 L11.9016009,14.4375 L11.9016009,14.4375 L11.9016009,14.4375 Z" id="Shape" fill="#FFFFFF"></path>
                        </g>
                    </g>
                </g>
            </g>
        </g>
    </g>
</svg>